<?xml version="1.0" encoding="UTF-8" standalone="no"?>
<!-- Created with Inkscape (http://www.inkscape.org/) -->

<svg
   version="1.1"
   id="svg8908"
   width="800"
   height="800"
   viewBox="0 0 800 800"
   sodipodi:docname="horse-graphics-4-publicdomainvectors.org.svg"
   inkscape:version="1.2 (dc2aedaf03, 2022-05-15)"
   xmlns:inkscape="http://www.inkscape.org/namespaces/inkscape"
   xmlns:sodipodi="http://sodipodi.sourceforge.net/DTD/sodipodi-0.dtd"
   xmlns="http://www.w3.org/2000/svg"
   xmlns:svg="http://www.w3.org/2000/svg">
  <defs
     id="defs8912">
    <clipPath
       clipPathUnits="userSpaceOnUse"
       id="clipPath8924">
      <path
         d="M 0,600 H 600 V 0 H 0 Z"
         id="path8922" />
    </clipPath>
  </defs>
  <sodipodi:namedview
     id="namedview8910"
     pagecolor="#ffffff"
     bordercolor="#000000"
     borderopacity="0.25"
     inkscape:showpageshadow="2"
     inkscape:pageopacity="0.0"
     inkscape:pagecheckerboard="0"
     inkscape:deskcolor="#d1d1d1"
     showgrid="false"
     inkscape:zoom="1.04625"
     inkscape:cx="400"
     inkscape:cy="400.4779"
     inkscape:window-width="1920"
     inkscape:window-height="1017"
     inkscape:window-x="-8"
     inkscape:window-y="-8"
     inkscape:window-maximized="1"
     inkscape:current-layer="g8916">
    <inkscape:page
       x="0"
       y="0"
       id="page8914"
       width="800"
       height="800" />
  </sodipodi:namedview>
  <g
     id="g8916"
     inkscape:groupmode="layer"
     inkscape:label="Page 1"
     transform="matrix(1.3333333,0,0,-1.3333333,0,800)">
    <g
       id="g8918">
      <g
         id="g8920"
         clip-path="url(#clipPath8924)">
        <g
           id="g8926"
           transform="translate(540.0029,324.9038)">
          <path
             d="m 0,0 c 0,-124.906 -101.257,-226.162 -226.163,-226.162 -124.906,0 -226.163,101.256 -226.163,226.162 0,124.906 101.257,226.164 226.163,226.164 C -101.257,226.164 0,124.906 0,0"
             style="fill:#f68915;fill-opacity:1;fill-rule:nonzero;stroke:none"
             id="path8928" />
        </g>
        <g
           id="g8930"
           transform="translate(178.1665,397.8262)">
          <path
             d="m 0,0 c 0.077,0.998 0.179,1.993 0.099,3.076 -0.032,0.641 0,1.267 -0.08,1.923 l -0.204,1.959 c -0.3,2.621 -0.81,5.272 -1.383,7.917 -1.185,5.293 -2.731,10.562 -4.407,15.792 -1.673,5.236 -3.53,10.43 -5.467,15.597 -1.929,5.171 -3.969,10.307 -6.063,15.424 -4.189,10.234 -8.629,20.377 -13.222,30.454 -4.023,8.815 -8.161,17.581 -12.433,26.284 0.222,-0.809 0.421,-1.626 0.574,-2.455 0.381,-2.215 0.476,-4.482 0.332,-6.737 -0.281,-4.523 -1.645,-8.932 -3.586,-13.005 -0.976,-2.041 -2.104,-4.005 -3.36,-5.89 -0.802,-1.181 -1.625,-2.311 -2.524,-3.426 9.554,-11.686 17.184,-35.381 24.572,-58.33 5.63,-17.489 10.987,-34.129 16.544,-43.4 1.522,1.977 3.033,3.97 4.506,5.976 C -3.973,-5.929 -1.89,-2.979 0,0 m 62.506,-263.969 c 0.888,-0.109 1.787,-0.177 2.686,-0.222 l 3.971,10.205 -1.566,-0.239 c -1.862,-3.226 -4.252,-7.379 -5.091,-9.744 m 222.645,5.719 c 0.314,-0.051 0.629,-0.096 0.944,-0.139 l 2.488,5.311 h -1.156 c -0.979,-1.424 -1.828,-3.112 -2.276,-5.172 M -66.954,129.659 c -2.044,3.407 -12.265,4.941 -17.546,2.044 0,0 9.199,0.341 9.54,-1.363 -2.385,1.193 -8.007,0.171 -8.007,0.171 l 0.681,-2.902 c 0,0 8.007,0.176 9.029,-0.676 -0.851,0.341 -7.325,-0.851 -7.666,-1.704 -0.341,-0.851 0.511,-2.049 2.045,-3.071 4.599,-0.852 6.303,1.538 11.924,7.501 m -9.848,-16.272 -0.178,0.29 c -3.347,-1.242 -6.529,-2.739 -9.664,-4.309 -3.125,-1.587 -6.216,-3.222 -9.166,-5.096 -2.949,-1.874 -5.908,-3.739 -8.932,-5.465 -1.507,-0.872 -3.024,-1.731 -4.555,-2.528 -0.766,-0.405 -1.532,-0.806 -2.306,-1.152 -0.779,-0.395 -1.534,-0.658 -2.295,-0.94 l -3.834,-1.419 3.941,-0.342 c 1.146,-0.1 2.243,-0.468 3.107,-1.222 0.863,-0.753 1.476,-1.831 1.856,-3.004 0.383,-1.177 0.552,-2.448 0.57,-3.723 0.023,-1.278 -0.097,-2.571 -0.37,-3.836 l 0.328,-0.09 c 0.809,2.511 1.128,5.243 0.539,7.942 -0.304,1.337 -0.886,2.687 -1.91,3.764 -0.376,0.397 -0.822,0.718 -1.293,1.001 0.04,0.016 0.085,0.028 0.124,0.044 0.852,0.311 1.665,0.666 2.477,1.024 1.632,0.708 3.225,1.467 4.81,2.24 3.169,1.552 6.311,3.137 9.444,4.741 3.134,1.603 6.079,3.528 8.978,5.519 2.886,2.013 5.704,4.137 8.329,6.561 M -115.525,84.79 c -0.841,1.5 -2.294,2.472 -3.843,2.841 -1.556,0.377 -3.203,0.076 -4.446,-0.654 -1.245,-0.734 -2.184,-1.761 -2.738,-2.891 -0.319,-0.547 -0.49,-1.147 -0.689,-1.714 -0.154,-0.587 -0.245,-1.187 -0.303,-1.776 1.689,1.662 3.386,3.101 5.009,3.444 1.559,0.382 2.915,-0.305 3.456,-1.269 0.053,-0.119 0.143,-0.227 0.157,-0.347 0.016,-0.06 0.046,-0.11 0.063,-0.177 0.007,-0.076 0.014,-0.152 0.03,-0.227 0.055,-0.162 0.009,-0.272 0.041,-0.416 -0.035,-0.113 -0.012,-0.247 -0.058,-0.357 -0.071,-0.466 -0.516,-1.034 -1.239,-1.559 -1.474,-1.065 -3.63,-1.719 -5.869,-2.5 1.105,-0.488 2.272,-0.727 3.49,-0.847 1.217,-0.091 2.489,0.001 3.79,0.458 0.648,0.226 1.306,0.56 1.917,1.055 0.608,0.495 1.178,1.161 1.522,1.979 0.725,1.668 0.529,3.404 -0.29,4.957 m 429.377,-246.53 c -1.294,-0.606 -2.644,-1.102 -3.771,-1.233 l -0.141,-0.009 c -0.076,-0.01 0.016,0 -0.388,-0.024 -0.658,-0.055 -1.01,-0.35 -1.322,-0.637 -0.419,-0.494 -0.57,-0.91 -0.681,-1.252 -0.223,-0.703 -0.299,-1.302 -0.368,-1.906 -0.126,-1.195 -0.151,-2.344 -0.154,-3.488 0.029,-4.563 0.404,-9.037 0.864,-13.512 0.22,4.483 0.531,8.981 1.175,13.36 0.168,1.087 0.362,2.173 0.63,3.181 0.116,0.445 0.258,0.889 0.415,1.221 1.189,-0.057 2.218,0.101 3.212,0.31 -0.339,-2.375 -0.732,-4.927 -1.148,-7.621 -0.958,-6.213 -2.045,-13.256 -2.961,-21.213 -2.017,-17.531 1.486,-27.744 3.367,-33.23 0.413,-1.199 0.877,-2.555 0.916,-3.051 -0.534,-2.152 -3.2,-6.73 -6.325,-6.302 -2.361,0.316 -3.678,-0.817 -4.249,-1.518 -1.951,-2.4 -1.028,-6.313 0.408,-10.555 -3.365,0.305 -8.645,0.225 -12.291,0.115 0.189,0.168 0.383,0.342 0.558,0.497 0.576,0.507 1.031,0.91 1.396,1.314 1.747,1.939 7.286,11.037 8.939,16.736 1.847,6.36 -0.447,60.78 -4.778,69.442 -1.53,3.056 -8.43,14.384 -17.167,28.726 -15.026,24.666 -35.604,58.445 -40.245,68.942 l -0.346,0.782 -0.73,0.444 c -0.344,0.209 -0.699,0.399 -1.059,0.578 l -20.915,33.55 14.371,-31.874 c -9.493,0.695 -22.653,-4.13 -39.386,-10.271 -29.744,-10.918 -70.333,-25.797 -111.242,-14.628 1.112,6.91 2.083,13.813 2.846,20.76 0.419,3.907 0.773,7.825 0.948,11.755 0.08,1.966 0.118,3.935 0.035,5.905 -0.034,0.984 -0.118,1.968 -0.264,2.943 -0.172,0.962 -0.334,1.966 -0.869,2.804 0.458,-0.877 0.528,-1.874 0.615,-2.834 0.06,-0.969 0.058,-1.942 0.007,-2.914 -0.087,-1.945 -0.295,-3.883 -0.542,-5.816 -0.512,-3.864 -1.199,-7.707 -1.951,-11.535 -1.335,-6.71 -2.876,-13.397 -4.539,-20.023 l -1.138,0.33 -0.279,-3.316 c -0.196,-2.325 -4.767,-57.125 -1.658,-72.326 0.752,-3.678 2.31,-13.291 0.702,-23.607 -0.332,-0.268 -0.659,-0.543 -0.978,-0.846 -0.953,-0.906 -1.808,-2.02 -2.289,-3.361 -0.251,-0.662 -0.35,-1.399 -0.356,-2.104 l 0.069,-0.974 0.127,-0.926 c 0.195,-1.215 0.432,-2.401 0.698,-3.576 1.064,-4.7 2.341,-9.317 3.675,-13.918 -0.891,4.703 -1.726,9.427 -2.333,14.15 -0.15,1.18 -0.271,2.359 -0.346,3.523 l -0.035,0.862 0.018,0.816 c 0.061,0.488 0.161,0.947 0.382,1.389 0.28,0.598 0.704,1.144 1.205,1.646 0.283,-6.021 3.265,-14.771 6.404,-23.965 3.155,-9.236 6.712,-19.648 6.138,-24.294 -7.279,-7.983 -6.71,-12.01 -4.591,-15.639 -3.015,-1.105 -8.384,-2.641 -13.81,-2.998 3.502,6.092 7.24,12.824 8.287,18.582 2.251,12.379 -10.124,48.59 -12.408,52.246 -1.889,3.02 -5.486,18.682 -6.425,25.719 -0.484,3.631 -3.012,6.927 -7.601,12.916 -5.753,7.504 -15.382,20.066 -29.086,43.703 l -0.23,0.336 c -1.165,1.454 -2.264,2.866 -3.333,4.26 2.052,-0.611 4.178,-0.928 6.379,-0.928 4.889,0 10.135,1.523 15.674,4.524 0.917,-1.312 1.933,-2.555 3.034,-3.704 0.643,-0.635 1.29,-1.259 1.947,-1.862 0.722,-0.544 1.451,-1.069 2.181,-1.578 0.373,-0.245 0.731,-0.505 1.111,-0.734 0.4,-0.205 0.79,-0.418 1.197,-0.603 0.802,-0.387 1.6,-0.76 2.415,-1.078 -0.566,0.699 -1.148,1.345 -1.726,1.976 -0.283,0.325 -0.583,0.621 -0.874,0.926 -0.276,0.322 -0.523,0.675 -0.783,1.007 -0.523,0.662 -1.046,1.31 -1.578,1.94 -0.465,0.693 -0.929,1.377 -1.404,2.044 -1.817,2.73 -3.433,5.549 -4.692,8.567 -1.296,2.992 -2.39,6.095 -3.312,9.303 -0.923,3.213 -1.71,6.494 -2.463,9.935 -0.941,-3.421 -1.026,-7.01 -0.684,-10.537 0.373,-3.532 1.285,-7.033 2.713,-10.336 0.249,-0.599 0.528,-1.184 0.82,-1.764 -7.096,-3.811 -13.503,-4.861 -19.06,-3.108 -2.67,0.841 -4.857,2.254 -6.606,3.778 -18.373,26.294 -18.669,40.988 -18.979,56.431 -0.059,2.951 -0.128,5.987 -0.321,9.109 2.249,3.124 4.415,6.242 6.547,9.428 2.17,3.259 4.293,6.547 6.27,10.037 l 0.363,0.642 0.017,0.487 c 0.028,0.782 0.069,1.571 0.082,2.348 0.758,1.861 1.602,3.732 2.48,5.549 1.329,2.718 2.779,5.382 4.347,7.977 3.127,5.195 6.766,10.091 10.922,14.521 4.176,4.4 8.906,8.325 14.221,11.326 2.633,1.547 5.455,2.749 8.334,3.785 2.886,1.04 5.899,1.679 8.935,2.188 -3.056,-0.34 -6.121,-0.814 -9.089,-1.7 C 42.988,43.819 40.054,42.757 37.29,41.333 31.71,38.578 26.639,34.829 22.102,30.549 17.584,26.24 13.562,21.412 10.047,16.243 8.285,13.66 6.639,10.998 5.109,8.264 5.108,8.261 5.106,8.259 5.105,8.257 4.653,10.928 4.037,13.521 3.362,16.085 1.885,21.55 0.071,26.851 -1.863,32.092 c -1.932,5.241 -4.034,10.4 -6.213,15.518 -2.169,5.123 -4.443,10.193 -6.769,15.236 -4.652,10.085 -9.54,20.046 -14.576,29.926 -4.526,8.872 -9.168,17.681 -13.947,26.413 -0.328,1.085 -0.715,2.148 -1.159,3.185 -1.829,4.059 -4.504,7.631 -7.605,10.696 2.855,-3.297 5.202,-7.033 6.654,-11.071 0.688,-2.033 1.151,-4.121 1.373,-6.23 0.195,-2.112 0.114,-4.234 -0.183,-6.316 -0.587,-4.176 -2.17,-8.155 -4.267,-11.794 -1.053,-1.821 -2.243,-3.564 -3.542,-5.217 -0.699,-0.88 -1.447,-1.758 -2.212,-2.592 l -0.544,0.603 -2.023,-2.229 c -9.636,-10.613 -28.807,-13.248 -36.993,-14.374 -1.259,-0.173 -2.289,-0.316 -3.03,-0.447 -4.409,-0.777 -7.962,-5.443 -11.097,-9.56 -1.255,-1.648 -3.152,-4.138 -3.863,-4.482 -0.831,-0.25 -2.808,0.14 -4.995,0.818 4.662,3.525 6.899,6.479 6.662,8.811 -0.151,1.481 -1.11,2.666 -2.632,3.251 -3.339,1.285 -8.105,-1.026 -13.149,-3.472 -2.134,-1.035 -5.239,-2.54 -6.659,-2.804 -1.366,2.606 -3.596,12.328 -5.138,21.071 1.653,1.412 4.682,3.971 6.523,5.353 2.739,2.054 36.529,32.155 40.372,35.58 l 0.698,0.621 0.17,0.919 c 0.029,0.163 0.691,3.832 0.127,7.765 2.378,3.035 17.384,12.377 30.547,19.645 l 0.904,0.499 5.116,14.375 8.151,-19.836 1.662,-0.138 C -5.703,148.666 40.388,110.158 68.583,58.172 l 0.277,-0.511 0.462,-0.353 C 91.481,40.335 158.455,36.3 177.808,40.025 c 21.528,4.142 59.135,3.615 62.742,3.552 3.927,-0.917 51.345,-12.487 61.526,-37.27 8.672,-21.109 0.13,-66.873 -3.975,-88.867 -1.814,-9.72 -2.428,-13.165 -2.154,-14.805 0.941,-5.653 15.041,-46.875 17.805,-52.828 0.922,-1.987 0.76,-6.09 0.1,-11.547 m -3.627,-4.069 c 0.067,0.106 0.127,0.145 0.085,0.09 -0.023,-0.029 -0.052,-0.06 -0.085,-0.09"
             style="fill:#a5a7a9;fill-opacity:1;fill-rule:nonzero;stroke:none"
             id="path8932" />
        </g>
        <g
           id="g8934"
           transform="translate(101.186,511.5029)">
          <path
             d="m 0,0 0.179,-0.29 c -2.626,-2.424 -5.443,-4.547 -8.329,-6.561 -2.9,-1.991 -5.845,-3.916 -8.978,-5.519 -3.134,-1.604 -6.276,-3.189 -9.444,-4.74 -1.586,-0.774 -3.178,-1.533 -4.811,-2.241 -0.811,-0.357 -1.625,-0.713 -2.477,-1.024 -0.039,-0.016 -0.084,-0.028 -0.123,-0.044 0.47,-0.283 0.917,-0.603 1.293,-1 1.023,-1.078 1.605,-2.428 1.91,-3.765 0.589,-2.698 0.27,-5.431 -0.539,-7.942 l -0.329,0.09 c 0.273,1.265 0.393,2.558 0.371,3.836 -0.019,1.275 -0.188,2.546 -0.57,3.723 -0.381,1.173 -0.994,2.251 -1.856,3.004 -0.865,0.755 -1.961,1.122 -3.108,1.222 l -3.941,0.342 3.834,1.419 c 0.762,0.282 1.517,0.545 2.295,0.941 0.774,0.345 1.54,0.746 2.306,1.151 1.531,0.797 3.048,1.656 4.555,2.528 3.025,1.726 5.984,3.591 8.933,5.465 2.95,1.874 6.04,3.509 9.165,5.096 C -6.528,-2.739 -3.346,-1.242 0,0 M 10.027,15.982 C 4.405,10.02 2.702,7.629 -1.898,8.481 c -1.533,1.022 -2.385,2.22 -2.044,3.072 0.34,0.852 6.814,2.044 7.666,1.703 -1.022,0.852 -9.029,0.677 -9.029,0.677 l -0.682,2.901 c 0,0 5.622,1.022 8.007,-0.17 -0.34,1.703 -9.54,1.362 -9.54,1.362 5.281,2.897 15.503,1.363 17.547,-2.044 m -48.571,-44.869 c 0.819,-1.552 1.015,-3.289 0.29,-4.956 -0.344,-0.819 -0.914,-1.485 -1.522,-1.979 -0.612,-0.496 -1.27,-0.83 -1.917,-1.056 -1.302,-0.456 -2.574,-0.548 -3.79,-0.457 -1.219,0.12 -2.386,0.358 -3.491,0.847 2.24,0.78 4.395,1.434 5.87,2.499 0.722,0.525 1.168,1.093 1.238,1.559 0.047,0.111 0.024,0.244 0.059,0.358 -0.033,0.143 0.013,0.254 -0.042,0.415 -0.015,0.075 -0.023,0.151 -0.03,0.227 -0.017,0.067 -0.047,0.117 -0.062,0.177 -0.014,0.121 -0.105,0.228 -0.157,0.347 -0.541,0.965 -1.897,1.651 -3.456,1.269 -1.624,-0.342 -3.321,-1.782 -5.009,-3.444 0.058,0.589 0.148,1.189 0.303,1.776 0.198,0.567 0.369,1.167 0.689,1.714 0.554,1.131 1.492,2.157 2.737,2.891 1.244,0.73 2.891,1.032 4.447,0.655 1.548,-0.37 3.002,-1.342 3.843,-2.842 m 425.835,-250.509 c -0.024,-0.031 -0.052,-0.06 -0.085,-0.089 0.066,0.105 0.127,0.144 0.085,0.089 m -12.209,83.159 c -1.815,-9.72 -2.428,-13.165 -2.155,-14.805 0.942,-5.652 15.041,-46.875 17.806,-52.828 0.922,-1.986 0.76,-6.09 0.1,-11.547 -1.294,-0.604 -2.644,-1.101 -3.771,-1.23 l -0.142,-0.012 c -0.076,-0.01 0.017,0 -0.387,-0.024 -0.659,-0.054 -1.011,-0.349 -1.324,-0.636 -0.418,-0.494 -0.569,-0.91 -0.679,-1.25 -0.224,-0.705 -0.3,-1.305 -0.368,-1.909 -0.126,-1.195 -0.152,-2.343 -0.155,-3.488 0.03,-4.56 0.405,-9.037 0.865,-13.512 0.219,4.483 0.531,8.981 1.174,13.36 0.168,1.088 0.363,2.174 0.63,3.181 0.115,0.446 0.258,0.887 0.415,1.221 1.19,-0.056 2.218,0.102 3.212,0.313 -0.339,-2.375 -0.731,-4.93 -1.147,-7.623 -0.958,-6.213 -2.045,-13.254 -2.961,-21.211 -2.018,-17.534 1.485,-27.744 3.367,-33.233 0.412,-1.199 0.876,-2.552 0.915,-3.051 -0.533,-2.154 -3.199,-6.73 -6.324,-6.3 -2.362,0.312 -3.679,-0.819 -4.249,-1.522 -1.951,-2.398 -1.03,-6.31 0.407,-10.553 -3.364,0.303 -8.645,0.225 -12.291,0.116 0.189,0.17 0.384,0.342 0.559,0.496 0.576,0.508 1.031,0.91 1.395,1.314 1.747,1.94 7.286,11.037 8.94,16.737 1.846,6.359 -0.448,60.779 -4.779,69.441 -1.529,3.057 -8.429,14.387 -17.167,28.729 -15.025,24.664 -35.603,58.442 -40.245,68.939 l -0.346,0.782 -0.73,0.445 c -0.344,0.209 -0.698,0.398 -1.059,0.577 l -20.915,33.55 14.371,-31.874 c -9.493,0.695 -22.653,-4.13 -39.385,-10.271 -29.744,-10.918 -70.333,-25.797 -111.242,-14.627 1.111,6.91 2.083,13.812 2.846,20.759 0.419,3.908 0.772,7.825 0.948,11.756 0.079,1.965 0.118,3.935 0.035,5.903 -0.035,0.984 -0.118,1.969 -0.264,2.944 -0.173,0.963 -0.334,1.967 -0.87,2.804 0.459,-0.875 0.528,-1.875 0.616,-2.832 0.06,-0.97 0.058,-1.943 0.006,-2.916 -0.087,-1.944 -0.295,-3.882 -0.541,-5.815 -0.513,-3.865 -1.2,-7.707 -1.951,-11.536 -1.335,-6.71 -2.876,-13.397 -4.54,-20.022 l -1.137,0.33 -0.28,-3.317 c -0.196,-2.325 -4.767,-57.124 -1.658,-72.326 0.752,-3.677 2.31,-13.291 0.702,-23.607 -0.332,-0.268 -0.658,-0.545 -0.977,-0.846 -0.953,-0.908 -1.808,-2.019 -2.29,-3.361 -0.251,-0.662 -0.35,-1.398 -0.356,-2.104 l 0.07,-0.974 0.127,-0.926 c 0.194,-1.215 0.432,-2.4 0.697,-3.576 1.065,-4.699 2.342,-9.317 3.676,-13.918 -0.892,4.705 -1.726,9.428 -2.333,14.15 -0.151,1.18 -0.272,2.362 -0.346,3.524 l -0.036,0.861 0.019,0.816 c 0.06,0.489 0.16,0.948 0.382,1.389 0.28,0.598 0.704,1.145 1.205,1.647 0.283,-6.022 3.264,-14.774 6.404,-23.965 3.155,-9.237 6.711,-19.649 6.137,-24.295 -7.278,-7.983 -6.709,-12.012 -4.59,-15.639 -3.016,-1.103 -8.385,-2.638 -13.811,-3 3.503,6.094 7.241,12.826 8.288,18.584 2.25,12.377 -10.124,48.59 -12.409,52.246 -1.888,3.02 -5.486,18.682 -6.424,25.717 -0.485,3.633 -3.012,6.932 -7.601,12.916 -5.753,7.506 -15.383,20.068 -29.086,43.703 l -0.23,0.338 c -1.165,1.455 -2.264,2.867 -3.334,4.26 2.052,-0.611 4.178,-0.927 6.38,-0.927 4.888,0 10.134,1.523 15.673,4.523 0.917,-1.312 1.934,-2.555 3.035,-3.704 0.642,-0.634 1.289,-1.258 1.946,-1.862 0.722,-0.543 1.451,-1.069 2.182,-1.578 0.373,-0.245 0.73,-0.505 1.111,-0.731 0.399,-0.205 0.789,-0.42 1.196,-0.606 0.802,-0.387 1.601,-0.76 2.416,-1.078 -0.566,0.699 -1.148,1.346 -1.726,1.979 -0.284,0.322 -0.584,0.619 -0.874,0.923 -0.276,0.323 -0.523,0.675 -0.784,1.008 -0.522,0.663 -1.046,1.31 -1.577,1.939 -0.466,0.694 -0.93,1.377 -1.405,2.045 -1.817,2.729 -3.432,5.548 -4.691,8.567 -1.297,2.991 -2.391,6.094 -3.313,9.302 -0.923,3.213 -1.709,6.494 -2.463,9.935 -0.941,-3.421 -1.025,-7.01 -0.684,-10.537 0.373,-3.532 1.285,-7.033 2.713,-10.336 0.249,-0.598 0.528,-1.184 0.82,-1.763 -7.095,-3.812 -13.502,-4.862 -19.059,-3.109 -2.67,0.841 -4.858,2.254 -6.606,3.778 -18.373,26.294 -18.669,40.989 -18.979,56.434 -0.059,2.948 -0.128,5.984 -0.322,9.106 2.249,3.124 4.416,6.242 6.547,9.428 2.17,3.259 4.294,6.548 6.27,10.037 l 0.364,0.642 0.017,0.488 c 0.027,0.781 0.068,1.571 0.081,2.347 0.759,1.861 1.603,3.732 2.481,5.55 1.329,2.717 2.779,5.382 4.346,7.976 3.127,5.196 6.766,10.092 10.922,14.521 4.177,4.401 8.907,8.325 14.222,11.326 2.632,1.547 5.454,2.749 8.333,3.786 2.887,1.039 5.899,1.678 8.936,2.187 -3.056,-0.34 -6.121,-0.813 -9.09,-1.7 -2.96,-0.884 -5.894,-1.946 -8.659,-3.37 -5.58,-2.755 -10.651,-6.504 -15.187,-10.784 -4.519,-4.309 -8.541,-9.137 -12.055,-14.306 -1.762,-2.583 -3.409,-5.245 -4.939,-7.979 -0.001,-0.003 -0.002,-0.004 -0.003,-0.007 -0.453,2.671 -1.069,5.264 -1.743,7.828 -1.477,5.465 -3.291,10.766 -5.226,16.007 -1.931,5.242 -4.034,10.4 -6.212,15.519 -2.17,5.122 -4.444,10.192 -6.769,15.235 -4.652,10.085 -9.541,20.046 -14.576,29.926 -4.526,8.872 -9.168,17.681 -13.947,26.413 -0.328,1.085 -0.716,2.149 -1.16,3.185 -1.829,4.059 -4.504,7.632 -7.605,10.696 2.856,-3.297 5.203,-7.033 6.654,-11.071 0.688,-2.032 1.152,-4.121 1.373,-6.23 0.196,-2.112 0.115,-4.234 -0.182,-6.316 -0.588,-4.176 -2.171,-8.154 -4.267,-11.793 -1.054,-1.822 -2.244,-3.564 -3.542,-5.217 -0.7,-0.881 -1.447,-1.759 -2.212,-2.593 l -0.545,0.603 -2.023,-2.229 c -9.635,-10.612 -28.806,-13.248 -36.993,-14.374 -1.258,-0.173 -2.288,-0.315 -3.029,-0.446 -4.41,-0.778 -7.963,-5.444 -11.098,-9.56 -1.255,-1.648 -3.151,-4.139 -3.863,-4.483 -0.831,-0.249 -2.808,0.14 -4.995,0.818 4.663,3.525 6.899,6.48 6.662,8.811 -0.151,1.481 -1.11,2.666 -2.631,3.251 -3.339,1.285 -8.105,-1.025 -13.15,-3.472 -2.133,-1.035 -5.238,-2.54 -6.658,-2.804 -1.367,2.607 -3.597,12.328 -5.138,21.071 1.652,1.413 4.681,3.972 6.522,5.353 2.74,2.054 36.529,32.155 40.373,35.58 l 0.697,0.622 0.17,0.918 c 0.03,0.164 0.692,3.832 0.128,7.765 2.377,3.035 17.383,12.378 30.546,19.645 l 0.905,0.499 5.116,14.375 8.151,-19.836 1.661,-0.138 c 37.798,-3.149 83.888,-41.657 112.084,-93.642 l 0.277,-0.512 0.461,-0.353 c 22.159,-16.972 89.133,-21.008 108.487,-17.283 21.527,4.142 59.134,3.615 62.742,3.552 3.927,-0.917 51.343,-12.487 61.525,-37.27 8.672,-21.109 0.13,-66.873 -3.974,-88.867 m -10.674,-170.52 h 1.156 l -2.488,-5.308 c -0.316,0.044 -0.63,0.087 -0.945,0.138 0.449,2.061 1.297,3.748 2.277,5.17 m -219.831,-1.142 1.566,0.236 -3.97,-10.205 c -0.899,0.045 -1.798,0.113 -2.686,0.222 0.838,2.366 3.229,6.516 5.09,9.747 M 25.257,-26.764 c 0.899,1.115 1.721,2.245 2.524,3.427 1.255,1.884 2.383,3.849 3.359,5.889 1.942,4.073 3.305,8.483 3.586,13.006 0.144,2.254 0.05,4.521 -0.331,6.736 -0.153,0.83 -0.353,1.646 -0.575,2.456 4.272,-8.704 8.41,-17.47 12.433,-26.285 4.593,-10.076 9.034,-20.22 13.223,-30.454 2.094,-5.116 4.133,-10.253 6.062,-15.424 1.937,-5.167 3.794,-10.361 5.467,-15.596 1.677,-5.231 3.223,-10.5 4.407,-15.792 0.574,-2.645 1.084,-5.297 1.384,-7.918 l 0.203,-1.959 c 0.081,-0.655 0.048,-1.282 0.081,-1.923 0.08,-1.083 -0.022,-2.078 -0.1,-3.076 -1.889,-2.979 -3.972,-5.929 -6.101,-8.841 -1.473,-2.005 -2.985,-3.999 -4.507,-5.976 -5.557,9.271 -10.914,25.911 -16.543,43.4 -7.388,22.949 -15.019,46.644 -24.572,58.33 M 439.95,-174.763 c -0.286,6.619 -1.115,13.243 -2.694,19.727 -1.565,6.483 -3.879,12.827 -7.019,18.785 -0.851,1.452 -1.595,2.97 -2.558,4.357 -0.923,1.412 -1.809,2.851 -2.873,4.167 l -1.547,2.007 -1.673,1.905 c -1.091,1.292 -2.339,2.44 -3.533,3.634 -4.931,4.618 -10.649,8.419 -16.867,11.004 -3.095,1.324 -6.361,2.229 -9.655,2.823 -2.389,0.375 -4.817,0.596 -7.221,0.492 -0.072,0.185 -0.136,0.381 -0.211,0.563 -11.651,28.363 -63.448,40.096 -65.647,40.581 l -0.263,0.058 -0.269,0.006 c -1.667,0.036 -41.081,0.797 -64.161,-3.644 -18.021,-3.468 -82.534,0.369 -103.688,15.917 -0.753,1.379 -1.525,2.743 -2.302,4.104 l 14.749,5.401 c -0.575,1.572 -1.254,3.256 -2.018,5.005 l -14.991,-6.546 c -0.552,0.928 -1.108,1.853 -1.671,2.77 l 15.112,7.176 c -0.71,1.495 -1.483,3.047 -2.297,4.611 l -15.227,-7.926 c -0.588,0.917 -1.189,1.821 -1.787,2.727 l 15.291,8.415 c -0.805,1.464 -1.651,2.948 -2.513,4.412 l -15.331,-9.035 c -0.617,0.898 -1.231,1.8 -1.857,2.686 l 15.323,9.443 c -0.861,1.399 -1.762,2.82 -2.703,4.26 l -15.297,-9.994 c -0.647,0.879 -1.304,1.744 -1.96,2.61 l 15.26,10.38 c -0.927,1.362 -1.888,2.738 -2.882,4.124 L 127.8,-18.643 c -0.673,0.854 -1.343,1.712 -2.025,2.553 l 15.074,11.233 c -0.99,1.327 -2.01,2.661 -3.06,3.998 l -14.922,-11.722 c -0.7,0.831 -1.407,1.65 -2.115,2.467 l 14.79,12.062 c -1.049,1.287 -2.125,2.574 -3.23,3.861 L 117.74,-6.706 c -0.726,0.805 -1.453,1.607 -2.186,2.396 l 14.389,12.826 c -1.116,1.253 -2.263,2.505 -3.408,3.723 L 112.433,-1.026 c -0.752,0.776 -1.509,1.541 -2.267,2.301 l 13.872,13.567 c -1.185,1.212 -2.39,2.412 -3.582,3.565 L 106.942,4.443 c -0.777,0.746 -1.555,1.491 -2.338,2.22 l 13.229,14.232 c -1.234,1.147 -2.501,2.291 -3.763,3.397 L 101.271,9.691 c -0.804,0.716 -1.611,1.416 -2.42,2.113 l 12.468,14.848 c -1.294,1.087 -2.622,2.167 -3.946,3.211 L 95.416,14.695 c -0.828,0.679 -1.653,1.364 -2.484,2.022 l 11.557,15.368 c -1.367,1.028 -2.757,2.038 -4.129,3.001 L 89.383,19.453 c -0.859,0.645 -1.72,1.266 -2.582,1.889 l 10.548,15.807 c -1.421,0.948 -2.871,1.88 -4.311,2.77 L 83.141,23.914 c -0.883,0.603 -1.767,1.198 -2.652,1.776 l 9.403,16.121 c -1.487,0.867 -2.995,1.711 -4.483,2.509 L 76.705,28.083 c -0.913,0.559 -1.828,1.113 -2.742,1.645 l 8.182,16.286 c -1.533,0.77 -3.101,1.52 -4.658,2.229 L 70.058,31.914 c -0.947,0.509 -1.893,0.989 -2.84,1.468 l 6.884,16.344 c -1.596,0.672 -3.213,1.316 -4.808,1.915 L 63.178,35.336 c -0.98,0.452 -1.957,0.881 -2.935,1.298 L 65.81,52.89 c -1.629,0.558 -3.293,1.09 -4.946,1.58 L 56.07,38.313 c -1.011,0.382 -2.02,0.746 -3.028,1.09 l 4.246,16.069 c -1.675,0.443 -3.376,0.854 -5.055,1.222 L 48.738,40.755 c -1.043,0.3 -2.082,0.581 -3.118,0.838 l 2.97,15.843 c -1.695,0.317 -3.422,0.603 -5.132,0.849 L 41.197,42.554 c -1.068,0.201 -2.132,0.38 -3.191,0.531 l 1.763,15.673 c -1.72,0.193 -3.463,0.351 -5.181,0.471 L 33.795,47.81 23.303,73.342 14.106,47.506 C 11.743,46.185 5.125,42.447 -1.368,38.448 -17.829,28.312 -18.809,25.697 -18.379,23.331 c 0.399,-2.193 0.246,-4.442 0.111,-5.638 -15.031,-13.393 -37.369,-33.198 -39.27,-34.624 -2.77,-2.078 -7.774,-6.411 -7.985,-6.594 l -1.159,-1.004 0.256,-1.511 c 1.784,-10.54 4.51,-23.628 7.366,-26.128 2.709,-2.371 7.005,-0.287 12.446,2.351 1.539,0.746 3.856,1.87 5.772,2.6 -1.636,-1.437 -3.956,-3.183 -6.309,-4.694 l -4.2,-2.693 4.535,-2.079 c 2.138,-0.98 9.43,-4.082 13.503,-2.859 2.28,0.684 4.202,3.208 6.634,6.402 2.278,2.991 5.397,7.086 7.708,7.494 0.691,0.122 1.651,0.253 2.825,0.415 8.212,1.128 26.736,3.675 38.067,13.901 8.494,-11.249 15.717,-33.687 22.718,-55.434 6.429,-19.97 12.511,-38.862 19.349,-47.965 0.25,-3.419 0.318,-6.786 0.383,-10.05 0.358,-17.759 0.729,-36.124 29.09,-71.599 1.389,-2.394 2.735,-4.672 4.042,-6.846 l 7.754,-36.433 c 0,0 0,-16.014 2.385,-22.828 2.385,-6.815 7.496,-38.5 4.429,-51.45 -3.066,-12.947 -23.168,-34.412 -22.487,-36.455 0.682,-2.045 13.97,-4.769 20.784,-1.705 6.814,3.069 8.859,11.928 8.859,11.928 0,0 -7.496,3.746 1.703,11.242 9.199,7.496 7.155,12.266 6.474,15.332 -0.682,3.067 -6.61,22.563 -2.045,39.442 2.854,10.548 3.204,20.121 3.065,25.816 0.512,-0.936 0.838,-1.748 0.934,-2.473 0.824,-6.171 4.494,-23.546 7.205,-27.884 2.209,-3.537 13.519,-38.205 11.668,-48.383 -0.948,-5.215 -4.88,-12.035 -8.349,-18.055 -4.687,-8.131 -7.074,-12.525 -5.823,-15.779 l 0.534,-1.389 1.458,-0.303 c 2.523,-0.521 5.407,-0.759 8.336,-0.759 8.246,0.002 16.839,1.888 18.675,4.644 1.849,2.774 4.705,8.221 3.063,13.557 -0.43,1.396 -1.146,2.478 -1.778,3.433 -1.453,2.196 -2.502,3.782 3.887,10.596 l 0.492,0.526 0.169,0.699 c 1.402,5.81 -2.273,16.574 -6.166,27.968 -3.18,9.313 -6.785,19.866 -6.059,24.368 1.826,11.312 0.118,21.847 -0.702,25.851 -2.536,12.401 0.539,55.283 1.488,67.505 42.062,-10.888 82.994,4.137 113.082,15.181 5.091,1.869 9.984,3.66 14.572,5.204 7.473,-13.245 34.353,-58.249 37.978,-67.312 0,-8.631 2.272,-17.035 6.361,-29.527 -2.953,-13.631 -5.793,-43.385 -12.267,-52.586 -6.473,-9.197 -23.168,-26.574 -23.168,-29.643 6.474,-3.066 19.421,-3.08 23.509,-1.716 4.089,1.363 6.474,10.578 6.474,10.578 0,0 -3.408,9.197 1.704,10.56 5.11,1.364 7.836,2.045 9.54,8.86 1.703,6.812 2.725,39.863 9.881,55.197 7.155,15.33 6.814,21.805 6.814,21.805 l -4.767,17.158 c 1.762,-2.897 3.488,-5.729 5.143,-8.445 8.328,-13.67 15.521,-25.477 16.947,-28.33 3.644,-7.289 5.849,-60.51 4.42,-65.485 -1.413,-4.865 -6.485,-13.197 -7.757,-14.609 -0.152,-0.17 -0.556,-0.526 -0.947,-0.869 -2.635,-2.323 -8.116,-7.149 -8.606,-15.791 l -0.132,-2.336 2.289,-0.487 c 5.327,-1.127 10.88,-1.345 13.716,-1.379 7.526,-0.089 8.277,0.667 8.881,1.27 0.871,0.873 5.395,10.377 5.395,12.147 0,0.634 -0.174,1.13 -0.641,2.453 -1.164,3.304 -1.564,5.078 -1.636,6.017 6.466,-0.258 10.694,6.705 11.583,10.699 0.36,1.625 -0.223,3.327 -1.106,5.899 -1.742,5.08 -4.984,14.533 -3.107,30.838 0.904,7.853 1.981,14.84 2.932,21.004 2.003,12.984 3.327,21.562 1.134,26.283 -2.822,6.078 -16.623,46.932 -17.362,51.352 -0.08,1.172 1.041,7.178 2.125,12.986 4.308,23.078 12.137,65.072 4.856,88.542 0.885,-0.605 1.73,-1.258 2.501,-2.003 1.797,-1.72 3.384,-3.635 4.687,-5.755 2.644,-4.2 4.538,-8.867 5.927,-13.681 1.4,-4.818 2.395,-9.77 3.129,-14.781 0.751,-5.011 1.096,-10.101 1.096,-15.196 -0.022,-10.19 -1.337,-20.434 -4.195,-30.26 -2.794,-9.815 -7.135,-19.349 -13.806,-27.241 l 0.303,-0.274 c 3.605,3.743 6.638,8.033 9.17,12.588 2.539,4.556 4.604,9.374 6.285,14.318 3.314,9.917 5.075,20.327 5.514,30.797 0.077,2.106 0.115,4.225 0.103,6.347 0.123,-1.195 0.228,-2.393 0.309,-3.594 0.332,-5.071 0.313,-10.19 -0.094,-15.295 -0.396,-4.994 -1.153,-9.969 -2.286,-14.863 -0.29,-1.284 -0.606,-2.563 -0.948,-3.836 -0.431,-1.305 -0.861,-3.293 -1.364,-4.575 -0.503,-1.282 -1.043,-3.245 -1.623,-4.494 -0.577,-1.483 -1.213,-2.946 -1.889,-4.387 -0.681,-1.442 -1.389,-2.862 -2.168,-4.251 -1.194,-2.149 -2.503,-4.229 -3.938,-6.227 -0.003,-0.02 0.254,-0.276 0.252,-0.293 2.988,2.465 5.453,5.401 7.457,8.572 1.959,3.088 3.516,6.39 4.71,9.814 0.038,0.11 0.131,0.201 0.168,0.311 2.508,7.422 4.278,15.091 5.288,22.882 0.132,0.976 0.23,1.957 0.333,2.937 0.1,0.981 0.195,1.963 0.261,2.948 0.063,0.749 0.142,2.207 0.188,2.957 0.039,0.59 0.061,1.615 0.083,2.394 0.125,-2.351 0.171,-4.711 0.121,-7.079 -0.104,-4.98 -0.583,-9.964 -1.433,-14.891 -0.217,-1.292 -0.46,-2.581 -0.729,-3.865 -0.359,-1.088 -0.673,-3.553 -1.093,-4.621 -0.419,-1.068 -0.869,-3.514 -1.353,-4.556 -0.474,-1.506 -1.023,-2.995 -1.601,-4.466 -0.585,-1.472 -1.178,-2.926 -1.86,-4.353 -1.03,-2.208 -2.167,-4.358 -3.418,-6.437 -0.005,-0.039 0.206,-0.276 0.2,-0.313 2.375,1.186 4.269,2.771 5.747,4.557 1.443,1.738 2.534,3.654 3.264,5.693 0.031,0.091 0.174,0.146 0.204,0.238 2.813,8.247 4.836,16.769 5.957,25.443 0.151,1.086 0.243,2.178 0.356,3.269 0.107,1.092 0.214,2.184 0.271,3.28 0.043,0.494 0.108,1.87 0.153,2.733 0.121,-4.602 -0.075,-9.226 -0.6,-13.819 -0.144,-1.301 -0.314,-2.599 -0.51,-3.895 -0.287,-0.871 -0.487,-3.812 -0.822,-4.667 -0.336,-0.854 -0.695,-3.784 -1.082,-4.617 -0.373,-1.529 -0.835,-3.045 -1.314,-4.545 -0.491,-1.502 -0.967,-2.992 -1.551,-4.457 -0.866,-2.266 -2.197,-4.341 -2.899,-6.648 -0.016,-0.057 0.158,-0.274 0.15,-0.333 1.758,-0.09 3.084,0.143 4.033,0.543 0.929,0.389 1.552,0.918 1.82,1.573 0.03,0.072 0.217,0.091 0.24,0.165 3.117,9.071 5.394,18.447 6.625,28.004 0.17,1.195 0.257,2.4 0.38,3.6 0.114,1.202 0.232,2.405 0.282,3.613 0.043,0.499 0.144,3.124 0.176,3.624 0.011,0.167 0.015,0.578 0.018,1.061 0.158,-3.406 0.146,-6.826 -0.049,-10.239 -0.071,-1.309 -0.168,-2.618 -0.289,-3.924 -0.216,-0.653 -0.302,-4.072 -0.553,-4.713 -0.252,-0.641 -0.52,-4.054 -0.811,-4.679 -0.272,-1.552 -0.645,-3.094 -1.029,-4.625 -0.393,-1.531 -0.753,-3.055 -1.239,-4.558 -0.704,-2.324 -1.774,-4.524 -2.38,-6.859 -0.019,-0.076 0.11,-0.273 0.099,-0.351 1.142,-1.369 1.897,-2.489 2.321,-3.473 0.413,-0.963 0.521,-1.797 0.375,-2.549 0.019,0.057 0.26,0.037 0.279,0.092 3.419,9.897 5.949,20.126 7.292,30.567 0.188,1.303 0.269,2.62 0.403,3.931 0.12,1.313 0.249,2.626 0.291,3.945 0.032,0.375 0.146,3.583 0.171,3.958 0.023,0.375 -0.018,3.589 -0.002,3.965 -0.027,1.331 -0.074,2.663 -0.147,3.995 0.483,-3.952 0.72,-7.942 0.717,-11.939 0.002,-1.318 -0.021,-2.637 -0.069,-3.955 -0.144,-0.435 -0.116,-4.331 -0.283,-4.758 -0.168,-0.427 -0.347,-4.324 -0.54,-4.74 -0.17,-1.576 -0.456,-3.144 -0.741,-4.705 -0.299,-1.561 -0.545,-3.12 -0.931,-4.659 -0.541,-2.385 -1.349,-4.695 -1.861,-7.071 -0.02,-0.096 0.061,-0.273 0.047,-0.37 0.527,-2.647 0.714,-5.12 0.61,-7.488 -0.102,-2.313 -0.474,-4.525 -1.07,-6.668 0.013,0.035 0.303,-0.02 0.316,0.018 3.722,10.721 6.505,21.803 7.96,33.126 0.207,1.414 0.283,2.842 0.425,4.263 0.128,1.425 0.268,2.847 0.303,4.278 0.021,0.25 0.148,4.041 0.163,4.291 0.017,0.25 -0.047,4.048 -0.036,4.299 -0.141,4.993 -0.621,9.993 -1.498,14.934 0.256,-0.998 0.507,-2 0.722,-3.011 1.066,-4.921 1.703,-9.948 1.981,-15.002 0.074,-1.325 0.124,-2.655 0.151,-3.984 -0.073,-0.218 0.07,-4.591 -0.014,-4.804 -0.084,-0.214 -0.172,-4.593 -0.269,-4.802 -0.069,-1.599 -0.266,-3.192 -0.453,-4.784 -0.205,-1.59 -0.333,-3.184 -0.622,-4.762 -0.378,-2.443 -0.921,-4.853 -1.342,-7.28 -0.019,-0.116 0.012,-0.274 -0.005,-0.39 -0.088,-3.926 -0.469,-7.75 -1.101,-11.503 -0.617,-3.662 -1.468,-7.256 -2.515,-10.789 0.007,0.017 0.346,-0.075 0.352,-0.055 4.026,11.545 7.062,23.48 8.629,35.688 0.225,1.522 0.296,3.062 0.449,4.594 0.134,1.534 0.285,3.068 0.311,4.61 0.011,0.125 0.151,4.5 0.159,4.625 0.008,0.125 -0.077,4.507 -0.072,4.632 -0.225,6.213 -0.932,12.433 -2.313,18.534 -0.708,3.158 -1.601,6.283 -2.68,9.347 1.619,-3.56 2.965,-7.258 3.998,-11.064 1.715,-6.195 2.724,-12.595 3.204,-19.044 l 0.257,-4.85 0.002,-4.863 c 0.033,-1.623 -0.077,-3.243 -0.165,-4.864 -0.11,-1.62 -0.122,-3.248 -0.313,-4.864 -1.116,-12.963 -3.845,-25.811 -7.652,-38.329 l 0.389,-0.127 c 4.33,12.369 7.619,25.158 9.297,38.249 0.244,1.632 0.308,3.284 0.473,4.926 0.14,1.644 0.302,3.289 0.322,4.942 l 0.151,4.958 z"
             style="fill:#110f0d;fill-opacity:1;fill-rule:nonzero;stroke:none"
             id="path8936" />
        </g>
      </g>
    </g>
  </g>
</svg>
